# xmcd
#
# Track frame offsets: 
#        150
#        25952
#        38854
#        51531
#        69008
#        84385
#        98787
#        111839
#        128416
#        145593
#        158795
#        172297
#
# Disc length: 2423 seconds
#
# Revision: 0
# Processed by: cddbd v1.5PL3 Copyright (c) Steve Scherf et al.
# Submitted via: ExactAudioCopy v0.95a3
#
DISCID=9a09750c
DTITLE=Howlin' Wolf - 
DYEAR=1900
DGENRE=Blues
TTITLE0=Red rooster
TTITLE1=Worried about you
TTITLE2=Ain't superstitious
TTITLE3=Goin' down slow
TTITLE4=Commit a crime
TTITLE5=I walked from Dallas
TTITLE6=My mind is ramblin'
TTITLE7=Rockin' daddy
TTITLE8=Sittin on the top of the world
TTITLE9=What a woman
TTITLE10=Poor boy
TTITLE11=Built for comfort
EXTD=
EXTT0=
EXTT1=
EXTT2=
EXTT3=
EXTT4=
EXTT5=
EXTT6=
EXTT7=
EXTT8=
EXTT9=
EXTT10=
EXTT11=
PLAYORDER=
